<svg width="50" height="50" viewBox="0 0 50 50" fill="none" xmlns="http://www.w3.org/2000/svg">
<g clip-path="url(#clip0_653_86)">
<path d="M25.0001 4.1665C16.9376 4.1665 10.4167 10.6873 10.4167 18.7498C10.4167 29.6873 25.0001 45.8332 25.0001 45.8332C25.0001 45.8332 39.5834 29.6873 39.5834 18.7498C39.5834 10.6873 33.0626 4.1665 25.0001 4.1665ZM14.5834 18.7498C14.5834 12.9998 19.2501 8.33317 25.0001 8.33317C30.7501 8.33317 35.4167 12.9998 35.4167 18.7498C35.4167 24.7498 29.4167 33.729 25.0001 39.3332C20.6667 33.7707 14.5834 24.6873 14.5834 18.7498Z" fill="#A6BFE8"/>
<path d="M25.0001 23.9582C27.8766 23.9582 30.2084 21.6263 30.2084 18.7498C30.2084 15.8734 27.8766 13.5415 25.0001 13.5415C22.1236 13.5415 19.7917 15.8734 19.7917 18.7498C19.7917 21.6263 22.1236 23.9582 25.0001 23.9582Z" fill="#A6BFE8"/>
</g>
<defs>
<clipPath id="clip0_653_86">
<rect width="50" height="50" fill="white"/>
</clipPath>
</defs>
</svg>
