<?xml version="1.0" standalone="no"?>
<!DOCTYPE svg PUBLIC "-//W3C//DTD SVG 20010904//EN"
 "http://www.w3.org/TR/2001/REC-SVG-20010904/DTD/svg10.dtd">
<svg version="1.0" xmlns="http://www.w3.org/2000/svg"
 width="512.000000pt" height="512.000000pt" viewBox="0 0 512.000000 512.000000"
 preserveAspectRatio="xMidYMid meet">

<g transform="translate(0.000000,512.000000) scale(0.100000,-0.100000)"
 stroke="none">
<path d="M2430 4933 c-201 -22 -425 -98 -584 -201 -113 -73 -296 -244 -296
-277 0 -8 30 -119 66 -246 36 -127 64 -232 62 -233 -1 -2 -39 -22 -83 -46
-347 -190 -641 -499 -819 -863 -49 -99 -120 -277 -113 -282 5 -5 266 -85 275
-85 5 0 24 39 42 88 132 352 392 665 708 852 40 23 74 41 76 39 2 -2 24 -72
49 -155 l44 -152 -72 -50 c-86 -60 -221 -176 -235 -202 -8 -15 8 -33 101 -115
l110 -98 52 50 c62 59 116 103 126 103 4 0 27 -69 51 -154 l43 -154 -62 -77
c-67 -84 -109 -159 -136 -247 l-18 -56 -161 -41 c-88 -22 -161 -39 -163 -38
-7 8 33 183 61 260 l33 95 -133 63 c-74 34 -135 60 -137 58 -2 -2 -15 -33 -30
-69 -49 -122 -78 -249 -95 -415 l-7 -69 -525 -131 c-289 -72 -537 -134 -551
-138 -24 -6 -30 -17 -57 -119 -72 -264 -66 -506 20 -762 146 -438 489 -755
934 -866 l92 -22 178 181 179 182 37 -25 c65 -45 216 -124 317 -165 278 -114
614 -167 901 -143 188 17 261 31 256 51 -3 9 -17 76 -32 149 -22 109 -30 132
-43 128 -60 -18 -200 -29 -341 -29 -193 0 -335 22 -505 77 -105 35 -375 160
-375 174 1 4 50 59 109 122 l109 114 88 -41 c160 -76 319 -117 497 -130 l87
-6 0 152 0 151 -37 0 c-119 0 -403 73 -403 104 0 6 51 62 113 123 l112 112 60
-14 c76 -18 242 -19 317 -1 l57 14 616 -639 c374 -387 623 -639 635 -639 34 0
205 49 279 80 527 218 870 800 801 1360 -13 102 -60 294 -76 310 -5 5 -115 35
-244 67 l-235 59 -6 175 c-12 325 -70 563 -203 834 -102 209 -235 394 -399
554 l-65 63 -39 -43 c-103 -114 -153 -172 -153 -182 0 -5 18 -26 41 -45 56
-48 164 -179 239 -291 175 -261 280 -607 280 -919 l0 -70 -160 40 -160 40 0
52 c0 197 -97 492 -223 681 -79 118 -82 121 -104 105 -33 -26 -188 -153 -200
-164 -10 -9 -2 -26 33 -76 90 -128 153 -280 179 -427 8 -48 13 -88 11 -90 -3
-3 -141 29 -287 68 -33 8 -38 14 -49 56 -16 67 -81 187 -137 257 -27 32 -52
64 -56 70 -5 6 98 381 237 866 l246 855 -103 100 c-160 157 -334 259 -545 321
-148 43 -356 63 -502 47z m277 -304 c95 -13 267 -68 342 -111 73 -40 191 -129
191 -142 0 -6 -94 -337 -209 -736 -154 -537 -212 -724 -222 -722 -8 2 -41 11
-74 20 -87 24 -279 21 -367 -5 l-68 -20 -19 66 c-11 36 -106 367 -211 734
l-191 668 23 20 c211 181 516 268 805 228z m-17 -1991 c125 -38 232 -129 286
-243 149 -312 -72 -665 -414 -665 -208 0 -388 134 -447 333 -21 72 -19 201 4
270 72 207 265 338 476 320 33 -2 76 -9 95 -15z m-875 -615 c22 -117 100 -260
197 -359 28 -29 49 -56 47 -62 -3 -7 -613 -640 -994 -1030 l-62 -64 -61 25
c-301 121 -529 387 -612 715 -27 103 -35 276 -18 371 l13 74 735 183 c404 100
738 183 741 183 4 1 10 -16 14 -36z m2996 -423 c46 -322 -100 -688 -361 -907
-84 -70 -211 -146 -285 -169 l-50 -16 -136 139 c-346 352 -914 947 -917 959
-2 8 4 17 12 20 9 3 44 41 78 83 63 78 127 200 148 281 6 25 13 50 15 56 2 7
275 -58 743 -175 l741 -186 12 -85z"/>
</g>
</svg>
