<svg xmlns="http://www.w3.org/2000/svg" xmlns:xlink="http://www.w3.org/1999/xlink" version="1.1" id="Layer_1" x="0px" y="0px" enable-background="new 0 0 841.89 595.28" xml:space="preserve" viewBox="152.57 238.16 495.86 122.78">
<g>
	<path d="M160.914,299.408c-1.543,2.41-0.462,4.391,2.407,4.391h25.853v53.019c0,2.279-1.848,4.128-4.127,4.128h-28.351   c-2.28,0-4.127-1.849-4.127-4.128V243.688c0-2.28,1.848-4.128,4.127-4.128h28.351c2.279,0,4.127,1.848,4.127,4.128v11.461   l-11.067,17.331c-1.543,2.415-4.065,6.364-5.609,8.78L160.914,299.408z"/>
</g>
<g>
	<path d="M231.159,243.688v113.129c0,2.279-1.848,4.128-4.127,4.128h-28.347c-2.278,0-4.127-1.849-4.127-4.128v-11.118   c0.051-0.074,0.102-0.16,0.157-0.247l11.24-18.207c1.477-2.396,3.898-6.321,5.381-8.716l11.239-18.209   c1.478-2.401,0.386-4.359-2.432-4.359h-25.585v-52.273c0-2.28,1.849-4.128,4.127-4.128h28.347   C229.312,239.561,231.159,241.409,231.159,243.688z"/>
</g>
<g>
	<path d="M272.942,326.744h-16.27v-87.031h16.27V326.744z"/>
	<path d="M322.268,299.111H289.47v-13.042h32.798V299.111z"/>
	<path d="M354.936,326.744h-16.27v-87.031h16.27V326.744z"/>
	<path d="M388.767,326.744h-16.27l6.973-87.031h18.594l11.88,31.636c2.066,5.338,4.003,10.653,5.811,15.947   c1.808,5.294,3.099,9.233,3.874,11.815l1.162,4.003c2.667-8.952,6.37-19.541,11.105-31.765l12.138-31.636h18.594l8.522,87.031   h-16.27l-3.1-33.96l-2.324-30.474c-3.099,8.868-6.801,19.026-11.104,30.474l-12.138,32.669h-11.105l-11.88-32.669l-10.201-30.086   c0,4.219-0.561,14.248-1.679,30.086L388.767,326.744z"/>
	<path d="M503.945,326.744h-16.27v-87.031h16.27V326.744z M557.017,326.744h-20.531l-31.249-43.128l30.087-43.903h19.498   l-30.216,43.645L557.017,326.744z"/>
	<path d="M647.533,282.97c0,13.429-3.725,24.234-11.169,32.411c-7.447,8.18-17.412,12.268-29.894,12.268   c-12.482,0-22.468-4.088-29.957-12.268c-7.489-8.177-11.233-18.981-11.233-32.411c0-13.514,3.722-24.36,11.169-32.54   c7.445-8.177,17.41-12.267,29.893-12.267c12.654,0,22.682,4.067,30.087,12.203C643.831,258.501,647.533,269.37,647.533,282.97z    M582.712,282.97c0,9.126,2.15,16.357,6.456,21.694c4.304,5.338,10.072,8.005,17.303,8.005c7.316,0,13.085-2.646,17.304-7.94   c4.217-5.295,6.327-12.546,6.327-21.758c0-9.21-2.11-16.483-6.327-21.822c-4.219-5.336-10.03-8.006-17.433-8.006   c-7.317,0-13.086,2.669-17.303,8.006C584.82,266.487,582.712,273.76,582.712,282.97z"/>
</g>
<g>
	<path d="M269.586,359.318h-12.574v-21.787h12.413v2.78h-9.083v6.724h8.049v2.779h-8.049v6.724h9.245V359.318z"/>
	<path d="M292.343,359.318h-12.251v-21.787h3.329v18.846h8.922V359.318z"/>
	<path d="M314.647,359.318h-12.574v-21.787h12.413v2.78h-9.083v6.724h8.049v2.779h-8.049v6.724h9.245V359.318z"/>
	<path d="M328.481,359.318h-3.329v-21.787h3.329V359.318z M341.347,359.318h-4.202l-8.243-10.764l7.919-11.023h4.041l-7.984,10.99   L341.347,359.318z"/>
	<path d="M364.071,340.312h-5.721v19.007h-3.33v-19.007h-5.689v-2.78h14.74V340.312z"/>
	<path d="M376.936,359.318h-3.329v-21.787h6.077c2.5,0,4.429,0.609,5.786,1.826c1.358,1.218,2.037,2.872,2.037,4.962   c-0.021,1.53-0.41,2.829-1.164,3.896c-0.754,1.066-1.8,1.838-3.136,2.312l5.689,8.792h-3.976l-5.107-8.275h-2.877V359.318z    M379.781,340.312h-2.845v7.952h3.006c1.379,0,2.424-0.361,3.136-1.083c0.711-0.722,1.066-1.687,1.066-2.894   C384.145,341.637,382.69,340.312,379.781,340.312z"/>
	<path d="M414.885,340.166c1.789,2.036,2.683,4.757,2.683,8.162s-0.9,6.131-2.699,8.178c-1.8,2.048-4.229,3.071-7.289,3.071   c-3.039,0-5.469-1.023-7.29-3.071c-1.821-2.047-2.731-4.772-2.731-8.178c0-3.383,0.905-6.099,2.715-8.146   c1.81-2.047,4.234-3.07,7.273-3.07C410.651,337.111,413.096,338.13,414.885,340.166z M402.78,342.396   c-1.153,1.454-1.729,3.432-1.729,5.932s0.592,4.482,1.778,5.947c1.185,1.466,2.769,2.198,4.752,2.198   c2.047,0,3.642-0.722,4.784-2.166c1.142-1.443,1.713-3.437,1.713-5.979c0-2.521-0.577-4.504-1.729-5.948   c-1.153-1.443-2.753-2.165-4.8-2.165C405.521,340.215,403.932,340.941,402.78,342.396z"/>
	<path d="M431.435,359.318h-3.297v-21.787h3.297V359.318z"/>
	<path d="M446.208,359.318h-3.33v-21.787h3.944l5.365,9.116c0.991,1.702,1.892,3.275,2.699,4.719   c0.809,1.444,1.363,2.457,1.665,3.039l0.452,0.905c-0.129-1.961-0.193-4.838-0.193-8.631v-9.148h3.329v21.787h-3.943l-5.398-9.083   c-0.97-1.638-1.858-3.185-2.667-4.639c-0.808-1.455-1.374-2.505-1.697-3.151l-0.484-0.938c0.172,2.154,0.259,5.054,0.259,8.695   V359.318z"/>
	<path d="M484.221,353.37c0,1.919-0.679,3.427-2.036,4.526c-1.357,1.099-3.114,1.648-5.269,1.648c-2.393,0-4.375-0.464-5.948-1.391   v-3.458c1.702,1.271,3.674,1.907,5.916,1.907c1.185,0,2.122-0.275,2.812-0.825c0.689-0.549,1.035-1.309,1.035-2.278   c0-0.582-0.205-1.115-0.614-1.601c-0.41-0.484-0.852-0.851-1.325-1.099c-0.475-0.247-1.186-0.587-2.134-1.019   c-0.561-0.258-0.954-0.441-1.18-0.549c-0.227-0.108-0.599-0.302-1.115-0.582c-0.518-0.28-0.9-0.518-1.147-0.711   c-0.248-0.194-0.556-0.464-0.922-0.809s-0.63-0.689-0.792-1.034c-0.161-0.345-0.313-0.749-0.452-1.212   c-0.141-0.464-0.21-0.965-0.21-1.504c0-1.853,0.673-3.318,2.021-4.396c1.346-1.077,3.087-1.616,5.22-1.616   c1.961,0,3.631,0.345,5.011,1.034v3.297c-1.444-0.905-3.082-1.357-4.913-1.357c-1.186,0-2.117,0.264-2.797,0.792   c-0.679,0.528-1.018,1.224-1.018,2.085c0,0.862,0.334,1.552,1.002,2.068c0.668,0.518,1.691,1.078,3.07,1.682   c0.905,0.388,1.611,0.722,2.118,1.002c0.506,0.28,1.088,0.674,1.745,1.18c0.657,0.507,1.142,1.11,1.455,1.811   C484.064,351.663,484.221,352.466,484.221,353.37z M478.952,335.883h-2.909l-4.364-5.236h3.136l2.684,3.297l2.683-3.297h3.136   L478.952,335.883z"/>
	<path d="M507.721,340.312h-5.722v19.007h-3.329v-19.007h-5.689v-2.78h14.74V340.312z"/>
	<path d="M519.423,359.318h-3.523l7.532-21.787h4.363l7.435,21.787h-3.556l-1.713-5.334h-8.792L519.423,359.318z M522.429,350.105   l-0.355,1.1h6.982l-0.355-1.1c-0.819-2.542-1.487-4.648-2.004-6.319c-0.518-1.67-0.83-2.71-0.938-3.119l-0.162-0.614   C525.359,341.066,524.304,344.417,522.429,350.105z"/>
	<path d="M557.307,359.318h-12.251v-21.787h3.33v18.846h8.921V359.318z"/>
	<path d="M569.202,359.318h-3.523l7.532-21.787h4.363l7.435,21.787h-3.556l-1.713-5.334h-8.792L569.202,359.318z M572.208,350.105   l-0.355,1.1h6.982l-0.355-1.1c-0.819-2.542-1.487-4.648-2.004-6.319c-0.518-1.67-0.83-2.71-0.938-3.119l-0.162-0.614   C575.139,341.066,574.083,344.417,572.208,350.105z M577.024,335.883h-2.715l3.071-5.236h3.522L577.024,335.883z"/>
	<path d="M610.609,358.252c-1.336,0.884-3.189,1.325-5.56,1.325c-3.254,0-5.915-1.013-7.984-3.039   c-2.068-2.025-3.103-4.74-3.103-8.146c0-3.297,1.039-5.98,3.119-8.049c2.079-2.068,4.714-3.104,7.903-3.104   c2.327,0,4.191,0.399,5.592,1.196v3.265c-0.948-0.517-1.805-0.878-2.569-1.083c-0.766-0.204-1.74-0.307-2.926-0.307   c-2.177,0-3.992,0.738-5.446,2.214c-1.455,1.477-2.183,3.433-2.183,5.867c0,2.479,0.723,4.45,2.166,5.915   c1.443,1.466,3.351,2.198,5.722,2.198c2.09,0,3.847-0.538,5.269-1.616V358.252z"/>
	<path d="M624.412,359.318h-3.297v-21.787h3.297V359.318z"/>
	<path d="M648.429,359.318h-12.574v-21.787h12.413v2.78h-9.083v6.724h8.049v2.779h-8.049v6.724h9.244V359.318z"/>
</g>
</svg>