<svg width="50" height="50" viewBox="0 0 50 50" fill="none" xmlns="http://www.w3.org/2000/svg">
<g clip-path="url(#clip0_614_47)">
<path d="M29.1666 12.5V8.33329H20.8333V12.5H29.1666ZM8.33329 16.6666V39.5833H41.6666V16.6666H8.33329ZM41.6666 12.5C43.9791 12.5 45.8333 14.3541 45.8333 16.6666V39.5833C45.8333 41.8958 43.9791 43.75 41.6666 43.75H8.33329C6.02079 43.75 4.16663 41.8958 4.16663 39.5833L4.18746 16.6666C4.18746 14.3541 6.02079 12.5 8.33329 12.5H16.6666V8.33329C16.6666 6.02079 18.5208 4.16663 20.8333 4.16663H29.1666C31.4791 4.16663 33.3333 6.02079 33.3333 8.33329V12.5H41.6666Z" fill="#A6BFE8"/>
</g>
<defs>
<clipPath id="clip0_614_47">
<rect width="50" height="50" fill="white"/>
</clipPath>
</defs>
</svg>
