<svg width="1200" height="150" viewBox="0 0 1200 150" fill="none" xmlns="http://www.w3.org/2000/svg">
<g clip-path="url(#clip0_394_82)">
<path d="M1201 150L1172.17 140.306C1143.33 130.783 1085.66 111.395 1028.26 113.436C970.731 115.477 913.6 138.606 856.066 127.041C798.667 115.477 740.999 68.8789 683.599 56.4641C626.066 44.0493 568.934 65.4775 511.401 68.0285C454.001 70.5795 396.333 54.2533 338.934 48.301C281.4 42.3487 224.269 46.7704 166.735 58.5049C109.335 70.0693 22.8338 14.6047 -6.00006 23.9583V5.72205e-06H22.8338C51.6677 5.72205e-06 109.335 5.72205e-06 166.735 5.72205e-06C224.269 5.72205e-06 281.4 5.72205e-06 338.934 5.72205e-06C396.333 5.72205e-06 454.001 5.72205e-06 511.401 5.72205e-06C568.934 5.72205e-06 626.066 5.72205e-06 683.599 5.72205e-06C740.999 5.72205e-06 793.068 5.72205e-06 850.467 5.72205e-06C908.001 5.72205e-06 956.381 5.72205e-06 1013.91 5.72205e-06C1071.31 5.72205e-06 1155.07 5.72205e-06 1183.9 5.72205e-06H1201V150Z" fill="#BFAE9F"/>
<path d="M1201 129.167L1172.17 119.473C1143.33 109.949 1085.66 90.5617 1028.26 92.6025C970.731 94.6433 913.6 117.772 856.066 106.208C798.667 94.6433 740.999 48.0454 683.599 35.6306C626.066 23.2158 568.934 44.644 511.401 47.195C454.001 49.746 396.333 33.4198 338.934 27.4675C281.4 21.5152 224.269 25.9369 166.735 37.6714C109.335 49.2358 22.8338 -6.22875 -6.00006 3.12484V-20.8335H22.8338C51.6677 -20.8335 109.335 -20.8335 166.735 -20.8335C224.269 -20.8335 281.4 -20.8335 338.934 -20.8335C396.333 -20.8335 454.001 -20.8335 511.401 -20.8335C568.934 -20.8335 626.066 -20.8335 683.599 -20.8335C740.999 -20.8335 793.068 -20.8335 850.467 -20.8335C908.001 -20.8335 956.381 -20.8335 1013.91 -20.8335C1071.31 -20.8335 1155.07 -20.8335 1183.9 -20.8335H1201V129.167Z" fill="#85796F"/>
</g>
<defs>
<clipPath id="clip0_394_82">
<rect width="1207" height="150" fill="white" transform="matrix(-1 0 0 -1 1201 150)"/>
</clipPath>
</defs>
</svg>
