<svg width="1200" height="150" viewBox="0 0 1200 150" fill="none" xmlns="http://www.w3.org/2000/svg">
<g clip-path="url(#clip0_394_79)">
<path d="M1207 119.793L1177.76 112.371C1148.52 104.874 1090.04 90.0311 1031.83 89.7282C973.488 89.501 915.552 103.89 857.208 109.721C799 115.476 740.52 112.75 682.312 107.676C623.968 102.602 566.032 95.3322 507.688 81.7009C449.48 68.0697 391 48.0773 332.792 34.5975C274.448 21.1177 216.512 13.9992 158.168 21.875C99.96 29.6751 41.48 52.3938 12.24 63.7532L-17 75.1125V150L21.76 150C51 150 120.632 150 178.84 150C237.184 150 274.448 150 332.792 150C391.136 150 449.48 150 507.688 150C565.896 150 623.968 150 682.312 150C740.52 150 799 150 857.208 150C915.416 150 957.61 150 1024.42 150C1091.23 150 1148.52 150 1177.76 150H1207V119.793Z" fill="#BFAE9F"/>
<path d="M1207 140.105L1177.76 132.684C1148.52 125.187 1090.04 110.344 1031.83 110.041C973.488 109.814 915.552 124.202 857.208 130.033C799 135.789 740.52 133.062 682.312 127.989C623.968 122.915 566.032 115.645 507.688 102.013C449.48 88.3822 391 68.3898 332.792 54.91C274.448 41.4302 216.512 34.3117 158.168 42.1875C99.96 49.9876 41.48 72.7063 12.24 84.0657L-17 95.425V170.312L21.76 170.312C51 170.312 120.632 170.312 178.84 170.312C237.184 170.312 274.448 170.312 332.792 170.312C391.136 170.312 449.48 170.313 507.688 170.312C565.896 170.312 623.968 170.312 682.312 170.312C740.52 170.312 799 170.312 857.208 170.312C915.416 170.312 957.61 170.313 1024.42 170.312C1091.23 170.312 1148.52 170.312 1177.76 170.312H1207V140.105Z" fill="#85796F"/>
</g>
<defs>
<clipPath id="clip0_394_79">
<rect width="1224" height="150" fill="white" transform="matrix(-1 0 0 -1 1207 150)"/>
</clipPath>
</defs>
</svg>
