<svg width="1194" height="150" viewBox="0 0 1194 150" fill="none" xmlns="http://www.w3.org/2000/svg">
<g clip-path="url(#clip0_392_6)">
<path d="M-11 0L17.7861 9.69374C46.5722 19.2174 104.144 38.6048 161.449 36.564C218.887 34.5233 275.924 11.3944 333.362 22.9588C390.667 34.5233 448.239 81.1211 505.543 93.5359C562.982 105.951 620.018 84.5225 677.457 81.9715C734.761 79.4205 792.333 95.7467 849.638 101.699C907.076 107.651 964.113 103.23 1021.55 91.4951C1078.86 79.9307 1165.21 135.395 1194 126.042V150H1165.21C1136.43 150 1078.86 150 1021.55 150C964.113 150 907.076 150 849.638 150C792.333 150 734.761 150 677.457 150C620.018 150 562.982 150 505.543 150C448.239 150 396.257 150 338.952 150C281.514 150 233.213 150 175.775 150C118.471 150 34.8569 150 6.07083 150H-11V0Z" fill="#BFAE9F"/>
<path d="M-11 20.8334L17.7861 30.5271C46.5722 40.0508 104.144 59.4382 161.449 57.3974C218.887 55.3566 275.924 32.2277 333.362 43.7922C390.667 55.3566 448.239 101.955 505.543 114.369C562.982 126.784 620.018 105.356 677.457 102.805C734.761 100.254 792.333 116.58 849.638 122.532C907.076 128.485 964.113 124.063 1021.55 112.328C1078.86 100.764 1165.21 156.229 1194 146.875V170.833H1165.21C1136.43 170.833 1078.86 170.833 1021.55 170.833C964.113 170.833 907.076 170.833 849.638 170.833C792.333 170.833 734.761 170.833 677.457 170.833C620.018 170.833 562.982 170.833 505.543 170.833C448.239 170.833 396.257 170.833 338.952 170.833C281.514 170.833 233.213 170.833 175.775 170.833C118.471 170.833 34.8569 170.833 6.07083 170.833H-11V20.8334Z" fill="#85796F"/>
</g>
<defs>
<clipPath id="clip0_392_6">
<rect width="1205" height="150" fill="white" transform="translate(-11)"/>
</clipPath>
</defs>
</svg>
