<svg width="1197" height="150" viewBox="0 0 1197 150" fill="none" xmlns="http://www.w3.org/2000/svg">
<g clip-path="url(#clip0_394_46)">
<path d="M-11 30.2073L17.8578 37.6288C46.7156 45.126 104.431 59.9689 161.878 60.2718C219.46 60.499 276.638 46.1104 334.22 40.2793C391.667 34.5239 449.382 37.2501 506.829 42.324C564.411 47.3978 621.589 54.6678 679.171 68.2991C736.618 81.9303 794.333 101.923 851.78 115.402C909.362 128.882 966.54 136.001 1024.12 128.125C1081.57 120.325 1139.28 97.6062 1168.14 86.2468L1197 74.8875V3.80453e-08L1158.75 1.80612e-05C1129.89 1.80612e-05 1061.17 1.80612e-05 1003.72 1.80612e-05C946.139 1.80612e-05 909.362 3.80453e-08 851.78 3.80453e-08C794.199 1.87773e-05 736.618 -3.87445e-06 679.171 4.35122e-06C621.724 1.25769e-05 564.411 1.80612e-05 506.829 1.80612e-05C449.382 1.80612e-05 391.667 1.80612e-05 334.22 1.80612e-05C276.772 1.80612e-05 235.13 -9.61371e-07 169.193 3.80453e-08C103.257 1.03746e-06 46.7156 1.80612e-05 17.8578 1.80612e-05H-11V30.2073Z" fill="#BFAE9F"/>
<path d="M-11 9.89484L17.8578 17.3163C46.7156 24.8135 104.431 39.6564 161.878 39.9593C219.46 40.1865 276.638 25.7979 334.22 19.9668C391.667 14.2114 449.382 16.9376 506.829 22.0115C564.411 27.0853 621.589 34.3553 679.171 47.9866C736.618 61.6178 794.333 81.6102 851.78 95.09C909.362 108.57 966.54 115.688 1024.12 107.812C1081.57 100.012 1139.28 77.2937 1168.14 65.9343L1197 54.575V-20.3125L1158.75 -20.3125C1129.89 -20.3125 1061.17 -20.3125 1003.72 -20.3125C946.139 -20.3125 909.362 -20.3125 851.78 -20.3125C794.199 -20.3125 736.618 -20.3125 679.171 -20.3125C621.724 -20.3125 564.411 -20.3125 506.829 -20.3125C449.382 -20.3125 391.667 -20.3125 334.22 -20.3125C276.772 -20.3125 235.13 -20.3125 169.193 -20.3125C103.257 -20.3125 46.7156 -20.3125 17.8578 -20.3125H-11V9.89484Z" fill="#85796F"/>
</g>
<defs>
<clipPath id="clip0_394_46">
<rect width="1208" height="150" fill="white" transform="translate(-11)"/>
</clipPath>
</defs>
</svg>
