<svg xmlns="http://www.w3.org/2000/svg" xmlns:xlink="http://www.w3.org/1999/xlink" version="1.1" id="Layer_1" x="0px" y="0px" enable-background="new 0 0 841.89 595.28" xml:space="preserve" viewBox="277.57 123.62 256.33 338.01">
<g>
	<path d="M343.48,241.52c-3.04,4.75-0.91,8.65,4.74,8.65h50.93v104.45c0,4.49-3.64,8.13-8.13,8.13h-55.85   c-4.49,0-8.13-3.64-8.13-8.13V131.75c0-4.49,3.64-8.13,8.13-8.13h55.85c4.49,0,8.13,3.64,8.13,8.13v22.58l-21.8,34.14   c-3.04,4.76-8.01,12.54-11.05,17.3L343.48,241.52z"/>
</g>
<g>
	<path d="M481.86,131.75v222.87c0,4.49-3.641,8.13-8.13,8.13H417.89c-4.49,0-8.13-3.64-8.13-8.13v-21.9   c0.1-0.149,0.2-0.319,0.31-0.489l22.14-35.87c2.91-4.721,7.68-12.45,10.6-17.17l22.141-35.871c2.91-4.73,0.76-8.59-4.79-8.59h-50.4   V131.75c0-4.49,3.64-8.13,8.13-8.13h55.841C478.22,123.62,481.86,127.26,481.86,131.75z"/>
</g>
<g>
	<path d="M288.245,438.858h-10.67v-57.075h10.67V438.858z"/>
	<path d="M320.593,420.736h-21.509v-8.553h21.509V420.736z"/>
	<path d="M342.018,438.858h-10.67v-57.075h10.67V438.858z"/>
	<path d="M364.204,438.858h-10.67l4.573-57.075h12.194l7.791,20.747c1.355,3.501,2.625,6.986,3.811,10.458s2.032,6.055,2.541,7.748   l0.762,2.625c1.749-5.87,4.177-12.814,7.283-20.831l7.96-20.747h12.194l5.589,57.075h-10.669l-2.033-22.271l-1.524-19.984   c-2.033,5.815-4.46,12.478-7.283,19.984l-7.96,21.425h-7.283l-7.791-21.425l-6.69-19.73c0,2.767-0.368,9.344-1.101,19.73   L364.204,438.858z"/>
	<path d="M439.739,438.858h-10.67v-57.075h10.67V438.858z M474.543,438.858h-13.464l-20.493-28.283l19.73-28.792h12.787   l-19.815,28.622L474.543,438.858z"/>
	<path d="M533.903,410.151c0,8.807-2.442,15.893-7.324,21.255c-4.884,5.364-11.419,8.045-19.604,8.045s-14.734-2.681-19.646-8.045   c-4.912-5.362-7.367-12.448-7.367-21.255c0-8.862,2.44-15.976,7.324-21.34c4.883-5.362,11.418-8.045,19.604-8.045   c8.299,0,14.875,2.668,19.73,8.003C531.476,394.104,533.903,401.232,533.903,410.151z M491.394,410.151   c0,5.984,1.41,10.727,4.234,14.227c2.822,3.501,6.604,5.25,11.347,5.25c4.798,0,8.581-1.735,11.348-5.208   c2.766-3.472,4.149-8.228,4.149-14.269c0-6.04-1.384-10.811-4.149-14.312c-2.767-3.499-6.577-5.25-11.432-5.25   c-4.8,0-8.582,1.751-11.348,5.25C492.776,399.341,491.394,404.111,491.394,410.151z"/>
</g>
<g>
	<path d="M306.3,461.493h-6.776v-11.74h6.689v1.498h-4.895v3.623h4.337v1.498h-4.337v3.623h4.981V461.493z"/>
	<path d="M318.563,461.493h-6.602v-11.74h1.794v10.155h4.807V461.493z"/>
	<path d="M330.582,461.493h-6.776v-11.74h6.689v1.498h-4.895v3.623h4.337v1.498h-4.337v3.623h4.981V461.493z"/>
	<path d="M338.037,461.493h-1.794v-11.74h1.794V461.493z M344.97,461.493h-2.265l-4.442-5.801l4.268-5.939h2.178l-4.303,5.923   L344.97,461.493z"/>
	<path d="M357.215,451.251h-3.083v10.242h-1.794v-10.242h-3.065v-1.498h7.943V451.251z"/>
	<path d="M364.148,461.493h-1.794v-11.74h3.275c1.347,0,2.386,0.328,3.118,0.984c0.732,0.656,1.098,1.547,1.098,2.674   c-0.012,0.824-0.221,1.523-0.627,2.099c-0.407,0.575-0.97,0.99-1.69,1.245l3.066,4.738h-2.143l-2.752-4.459h-1.55V461.493z    M365.681,451.251h-1.533v4.285h1.62c0.743,0,1.307-0.194,1.69-0.584c0.383-0.389,0.575-0.908,0.575-1.559   C368.032,451.965,367.248,451.251,365.681,451.251z"/>
	<path d="M384.597,451.173c0.964,1.097,1.446,2.563,1.446,4.397c0,1.835-0.485,3.305-1.455,4.407   c-0.97,1.104-2.279,1.655-3.928,1.655c-1.638,0-2.947-0.552-3.928-1.655c-0.981-1.103-1.472-2.572-1.472-4.407   c0-1.822,0.488-3.286,1.463-4.389c0.975-1.104,2.282-1.655,3.919-1.655C382.315,449.526,383.633,450.075,384.597,451.173z    M378.074,452.374c-0.621,0.784-0.932,1.85-0.932,3.196c0,1.348,0.319,2.416,0.958,3.205c0.638,0.79,1.492,1.185,2.561,1.185   c1.103,0,1.962-0.389,2.578-1.167c0.615-0.777,0.923-1.852,0.923-3.223c0-1.358-0.311-2.427-0.932-3.204   c-0.622-0.778-1.484-1.168-2.587-1.168C379.551,451.198,378.695,451.591,378.074,452.374z"/>
	<path d="M393.516,461.493h-1.776v-11.74h1.776V461.493z"/>
	<path d="M401.476,461.493h-1.794v-11.74h2.125l2.892,4.912c0.534,0.917,1.019,1.766,1.455,2.543   c0.436,0.778,0.734,1.324,0.897,1.638l0.244,0.487c-0.07-1.057-0.104-2.606-0.104-4.65v-4.93h1.794v11.74h-2.125l-2.909-4.895   c-0.522-0.883-1.001-1.716-1.437-2.5c-0.436-0.783-0.74-1.35-0.915-1.698l-0.261-0.505c0.093,1.161,0.14,2.724,0.14,4.686V461.493z   "/>
	<path d="M421.96,458.288c0,1.034-0.366,1.847-1.098,2.438c-0.731,0.593-1.678,0.889-2.839,0.889c-1.289,0-2.357-0.25-3.205-0.749   v-1.864c0.917,0.686,1.979,1.028,3.188,1.028c0.639,0,1.144-0.148,1.516-0.444c0.371-0.296,0.558-0.706,0.558-1.229   c0-0.313-0.111-0.601-0.331-0.862c-0.221-0.261-0.459-0.458-0.715-0.592c-0.255-0.134-0.639-0.316-1.149-0.549   c-0.302-0.14-0.514-0.237-0.636-0.296c-0.122-0.058-0.322-0.162-0.601-0.313c-0.279-0.151-0.485-0.279-0.618-0.384   c-0.134-0.104-0.3-0.249-0.497-0.435c-0.197-0.187-0.34-0.372-0.427-0.558s-0.168-0.403-0.244-0.653   c-0.075-0.25-0.112-0.52-0.112-0.811c0-0.998,0.362-1.788,1.088-2.368c0.726-0.581,1.664-0.871,2.813-0.871   c1.057,0,1.957,0.186,2.7,0.558V452c-0.778-0.487-1.661-0.731-2.648-0.731c-0.639,0-1.141,0.143-1.506,0.427   c-0.366,0.284-0.549,0.659-0.549,1.123c0,0.465,0.18,0.836,0.54,1.115c0.359,0.278,0.911,0.581,1.654,0.905   c0.488,0.209,0.868,0.39,1.141,0.54c0.273,0.151,0.587,0.363,0.941,0.636c0.354,0.273,0.615,0.599,0.783,0.976   C421.876,457.368,421.96,457.801,421.96,458.288z M419.121,448.864h-1.568l-2.352-2.821h1.689l1.446,1.776l1.445-1.776h1.69   L419.121,448.864z"/>
	<path d="M434.624,451.251h-3.083v10.242h-1.794v-10.242h-3.066v-1.498h7.943V451.251z"/>
	<path d="M440.929,461.493h-1.898l4.059-11.74h2.352l4.006,11.74h-1.916l-0.923-2.874h-4.738L440.929,461.493z M442.549,456.529   l-0.191,0.592h3.763l-0.192-0.592c-0.441-1.37-0.801-2.506-1.08-3.406c-0.278-0.899-0.446-1.46-0.505-1.681l-0.087-0.331   C444.128,451.657,443.56,453.463,442.549,456.529z"/>
	<path d="M461.344,461.493h-6.602v-11.74h1.794v10.155h4.808V461.493z"/>
	<path d="M467.754,461.493h-1.898l4.059-11.74h2.352l4.006,11.74h-1.916l-0.923-2.874h-4.738L467.754,461.493z M469.374,456.529   l-0.191,0.592h3.763l-0.192-0.592c-0.441-1.37-0.801-2.506-1.08-3.406c-0.278-0.899-0.446-1.46-0.505-1.681l-0.087-0.331   C470.953,451.657,470.385,453.463,469.374,456.529z M471.97,448.864h-1.464l1.655-2.821h1.898L471.97,448.864z"/>
	<path d="M490.066,460.918c-0.72,0.477-1.719,0.715-2.995,0.715c-1.754,0-3.188-0.546-4.303-1.638   c-1.115-1.092-1.673-2.555-1.673-4.39c0-1.776,0.561-3.223,1.682-4.337c1.12-1.115,2.54-1.673,4.259-1.673   c1.254,0,2.259,0.216,3.014,0.645V452c-0.512-0.278-0.973-0.473-1.385-0.584c-0.413-0.109-0.938-0.165-1.577-0.165   c-1.173,0-2.15,0.397-2.935,1.193c-0.784,0.795-1.176,1.85-1.176,3.161c0,1.336,0.389,2.398,1.167,3.188   c0.777,0.79,1.806,1.185,3.083,1.185c1.126,0,2.073-0.29,2.839-0.871V460.918z"/>
	<path d="M497.505,461.493h-1.776v-11.74h1.776V461.493z"/>
	<path d="M510.447,461.493h-6.776v-11.74h6.688v1.498h-4.895v3.623h4.338v1.498h-4.338v3.623h4.982V461.493z"/>
</g>
</svg>