<?xml version="1.0" standalone="no"?>
<!DOCTYPE svg PUBLIC "-//W3C//DTD SVG 20010904//EN"
 "http://www.w3.org/TR/2001/REC-SVG-20010904/DTD/svg10.dtd">
<svg version="1.0" xmlns="http://www.w3.org/2000/svg"
 width="429.000000pt" height="413.000000pt" viewBox="0 0 429.000000 413.000000"
 preserveAspectRatio="xMidYMid meet">

<g transform="translate(0.000000,413.000000) scale(0.100000,-0.100000)" stroke="none">
<path d="M3430 4011 c-81 -31 -236 -139 -403 -280 l-77 -66 -1288 -5 c-1269
-5 -1287 -5 -1322 -25 -21 -12 -44 -39 -58 -65 l-22 -44 0 -1121 0 -1121 23
-44 c13 -26 36 -53 57 -65 34 -19 54 -20 573 -23 l537 -3 0 -129 0 -130 -143
0 c-98 0 -147 -4 -155 -12 -18 -18 -14 -56 7 -68 13 -7 256 -10 720 -10 685 0
701 0 721 20 15 15 17 25 11 42 -8 22 -13 23 -160 26 l-151 3 0 129 0 130 240
0 240 0 0 -389 c0 -434 2 -446 67 -513 64 -66 82 -68 490 -68 233 0 380 4 408
11 24 6 62 26 84 45 75 64 72 29 69 855 l-3 735 -25 37 c-14 21 -43 50 -64 65
-37 26 -46 27 -178 30 l-138 4 0 784 c0 836 1 824 -48 867 -20 19 -20 19 45
119 109 166 128 250 63 283 -37 19 -64 18 -120 -4z m56 -106 c-105 -250 -769
-957 -1213 -1291 -93 -70 -218 -144 -243 -144 -6 0 5 30 25 68 170 324 1029
1186 1369 1373 70 39 80 38 62 -6z m-844 -532 c-278 -278 -511 -546 -620 -715
-40 -62 -48 -68 -104 -87 -169 -57 -316 -186 -409 -356 -64 -119 -125 -182
-213 -225 l-64 -30 -254 0 c-184 0 -257 -3 -266 -12 -18 -18 -14 -56 7 -68 13
-7 295 -10 844 -10 812 0 824 0 842 20 15 17 16 24 7 45 l-12 25 -292 0 -292
0 52 36 c60 42 182 185 216 252 23 46 38 91 50 144 4 18 21 35 53 54 248 143
795 652 1104 1027 l73 89 18 -22 c17 -21 18 -68 18 -801 l0 -779 -227 0 c-200
0 -233 -3 -269 -19 -75 -34 -124 -119 -124 -215 l0 -36 -1215 0 -1215 0 2 918
c3 761 5 922 17 935 12 16 111 17 1237 17 l1224 0 -188 -187z m-701 -954 c10
-26 45 -49 76 -49 12 0 14 -6 8 -27 -21 -91 -172 -261 -270 -307 -64 -30 -215
-66 -279 -66 l-38 0 54 59 c30 32 73 94 96 139 68 131 146 210 272 276 56 30
65 33 68 18 2 -9 8 -29 13 -43z m1809 -564 c39 -20 60 -63 60 -120 l0 -45
-470 0 -470 0 1 33 c1 54 22 100 58 124 34 23 35 23 413 23 319 0 384 -2 408
-15z m60 -780 l0 -525 -470 0 -470 0 0 525 0 525 470 0 470 0 0 -525z m-1030
345 l0 -170 -1199 0 c-1102 0 -1200 1 -1212 17 -10 11 -15 58 -17 170 l-3 153
1215 0 1216 0 0 -170z m-570 -400 l0 -130 -330 0 -330 0 0 130 0 130 330 0
330 0 0 -130z m1600 -616 c0 -50 -4 -60 -33 -89 -24 -24 -46 -35 -78 -40 -24
-3 -201 -5 -394 -3 -307 3 -353 5 -373 20 -38 26 -51 52 -58 112 l-7 56 472 0
471 0 0 -56z"/>
<path d="M3163 1820 c-17 -7 -23 -18 -23 -40 0 -44 26 -50 208 -50 168 0 202
9 202 50 0 42 -34 50 -205 49 -88 0 -170 -4 -182 -9z"/>
<path d="M1805 1552 c-65 -41 -91 -103 -73 -169 34 -127 190 -151 270 -43 44
59 25 158 -39 204 -39 28 -120 32 -158 8z m115 -92 c11 -11 20 -29 20 -40 0
-26 -34 -60 -62 -60 -31 0 -58 28 -58 61 0 55 60 79 100 39z"/>
<path d="M3307 402 c-10 -10 -17 -28 -17 -39 0 -23 30 -53 53 -53 21 0 57 35
57 55 0 21 -36 55 -58 55 -11 0 -26 -8 -35 -18z"/>
</g>
</svg>
