<?xml version="1.0" standalone="no"?>
<!DOCTYPE svg PUBLIC "-//W3C//DTD SVG 20010904//EN"
 "http://www.w3.org/TR/2001/REC-SVG-20010904/DTD/svg10.dtd">
<svg version="1.0" xmlns="http://www.w3.org/2000/svg"
 width="61.000000pt" height="66.000000pt" viewBox="0 0 61.000000 66.000000"
 preserveAspectRatio="xMidYMid meet">

<g transform="translate(0.000000,66.000000) scale(0.100000,-0.100000)" stroke="none">
<path d="M160 584 c-69 -30 -131 -62 -137 -71 -27 -36 -6 -174 43 -277 48
-101 175 -216 240 -216 35 0 140 75 182 132 52 68 80 134 98 228 16 81 12 120
-14 143 -19 17 -255 117 -274 116 -7 0 -69 -25 -138 -55z m274 -150 c9 -3 16
-13 16 -22 0 -19 -169 -192 -187 -192 -7 0 -35 22 -63 50 -44 43 -49 53 -40
70 15 28 31 25 65 -10 16 -16 34 -30 40 -30 6 0 42 32 80 70 38 39 70 70 71
70 1 0 9 -3 18 -6z"/>
</g>
</svg>
