<?xml version="1.0" standalone="no"?>
<!DOCTYPE svg PUBLIC "-//W3C//DTD SVG 20010904//EN"
 "http://www.w3.org/TR/2001/REC-SVG-20010904/DTD/svg10.dtd">
<svg version="1.0" xmlns="http://www.w3.org/2000/svg"
 width="50.000000pt" height="55.000000pt" viewBox="0 0 50.000000 55.000000"
 preserveAspectRatio="xMidYMid meet">

<g transform="translate(0.000000,55.000000) scale(0.100000,-0.100000)" stroke="none">
<path d="M225 538 c-2 -7 -6 -26 -7 -43 l-3 -30 -16 28 -15 28 -27 -25 c-15
-14 -30 -39 -33 -56 -4 -16 -10 -30 -15 -30 -5 0 -9 -11 -9 -25 l0 -25 150 0
150 0 0 25 c0 14 -4 25 -10 25 -5 0 -10 12 -10 26 0 15 -12 38 -31 57 l-31 31
-17 -30 -16 -29 -5 40 c-4 32 -10 41 -28 43 -12 2 -24 -3 -27 -10z"/>
<path d="M120 315 c0 -4 7 -19 14 -34 43 -83 171 -90 223 -12 13 19 23 38 23
42 0 21 -43 7 -67 -21 -35 -42 -91 -42 -126 0 -22 25 -67 42 -67 25z"/>
<path d="M83 150 c-38 -23 -63 -67 -63 -110 l0 -30 229 0 c190 0 230 2 234 14
8 21 -9 75 -30 98 -37 41 -67 48 -205 48 -114 0 -138 -3 -165 -20z m302 -34
c29 -12 55 -41 55 -60 0 -3 -83 -6 -185 -6 -106 0 -185 4 -185 9 0 24 16 44
44 57 43 18 226 18 271 0z"/>
</g>
</svg>
