<?xml version="1.0" standalone="no"?>
<!DOCTYPE svg PUBLIC "-//W3C//DTD SVG 20010904//EN"
 "http://www.w3.org/TR/2001/REC-SVG-20010904/DTD/svg10.dtd">
<svg version="1.0" xmlns="http://www.w3.org/2000/svg"
 width="512.000000pt" height="512.000000pt" viewBox="0 0 512.000000 512.000000"
 preserveAspectRatio="xMidYMid meet">

<g transform="translate(0.000000,512.000000) scale(0.100000,-0.100000)"
stroke="none">
<path d="M51 4376 c-53 -29 -50 57 -51 -1639 l0 -1579 29 -29 29 -29 2502 0
2502 0 29 29 29 29 0 1577 c0 1714 3 1617 -55 1643 -40 19 -4980 17 -5014 -2z
m1826 -192 c245 -39 456 -130 659 -284 474 -361 678 -980 514 -1556 -97 -341
-306 -625 -603 -821 -567 -374 -1320 -306 -1806 162 -272 262 -420 574 -451
950 -16 189 7 374 70 565 223 682 906 1098 1617 984z m2898 -98 c60 -28 107
-74 138 -135 l22 -46 0 -1161 0 -1160 -30 -59 c-19 -37 -46 -72 -73 -92 -84
-64 -85 -64 -743 -61 l-594 3 -50 27 c-59 31 -94 67 -126 128 l-24 45 -3 1144
c-3 1243 -4 1204 52 1279 29 39 89 85 131 100 20 7 238 11 640 11 l610 1 50
-24z"/>
<path d="M1440 4006 c-401 -72 -731 -308 -919 -658 -56 -102 -87 -183 -117
-303 -35 -137 -44 -368 -20 -511 87 -512 473 -922 977 -1038 174 -41 404 -39
584 4 400 94 744 395 890 775 63 166 86 292 86 470 1 602 -417 1118 -1011
1250 -102 22 -370 29 -470 11z m365 -115 c177 -88 295 -330 295 -612 0 -166
-53 -333 -142 -450 -24 -31 -37 -59 -40 -90 l-5 -45 367 -212 c202 -117 374
-220 382 -230 41 -46 25 -102 -49 -175 -87 -86 -202 -123 -353 -114 -300 18
-581 207 -699 470 -21 47 -37 67 -63 81 l-34 18 -369 -213 c-396 -229 -411
-235 -460 -189 -13 12 -33 53 -45 91 -35 107 -25 183 39 313 98 201 295 359
520 417 77 20 248 28 302 14 17 -4 37 1 62 15 l37 22 0 412 c0 244 4 425 10
446 6 19 20 43 33 53 34 28 131 18 212 -22z"/>
<path d="M1740 3363 l0 -361 42 -25 43 -25 22 40 c48 84 68 174 68 303 -1 174
-46 303 -136 391 l-39 38 0 -361z"/>
<path d="M1585 2805 c-38 -37 -35 -95 6 -129 35 -30 58 -32 98 -11 54 27 61
108 13 145 -35 28 -87 26 -117 -5z"/>
<path d="M1282 2788 c-243 -28 -475 -213 -523 -416 -6 -29 -5 -33 9 -27 9 3
150 83 312 177 l295 170 0 48 c0 57 -3 59 -93 48z"/>
<path d="M1785 2509 c-16 -10 -34 -20 -40 -22 -15 -5 49 -97 107 -154 68 -66
185 -138 268 -164 80 -25 238 -30 288 -10 18 8 29 17 25 21 -15 14 -602 350
-610 349 -4 0 -21 -9 -38 -20z"/>
<path d="M3507 3906 c-35 -32 -38 -68 -35 -361 l3 -250 638 -3 637 -2 0 294 0
293 -26 27 -27 26 -582 0 -582 0 -26 -24z"/>
<path d="M3477 3103 c-4 -3 -7 -168 -7 -365 l0 -358 640 0 640 0 0 365 0 365
-633 0 c-349 0 -637 -3 -640 -7z"/>
<path d="M3472 1900 l3 -290 28 -27 27 -28 553 -3 c303 -2 567 0 586 3 18 4
44 17 57 30 l24 24 0 291 0 290 -641 0 -640 0 3 -290z"/>
<path d="M460 820 l0 -90 273 2 272 3 3 88 3 87 -276 0 -275 0 0 -90z"/>
<path d="M4112 823 l3 -88 273 -3 272 -2 0 90 0 90 -275 0 -276 0 3 -87z"/>
</g>
</svg>
