<?xml version="1.0" standalone="no"?>
<!DOCTYPE svg PUBLIC "-//W3C//DTD SVG 20010904//EN"
 "http://www.w3.org/TR/2001/REC-SVG-20010904/DTD/svg10.dtd">
<svg version="1.0" xmlns="http://www.w3.org/2000/svg"
 width="512.000000pt" height="512.000000pt" viewBox="0 0 512.000000 512.000000"
 preserveAspectRatio="xMidYMid meet">

<g transform="translate(0.000000,512.000000) scale(0.100000,-0.100000)"
stroke="none">
<path d="M172 4591 c-60 -21 -113 -67 -145 -126 l-22 -40 0 -840 c0 -800 1
-842 19 -875 26 -49 74 -98 121 -123 l40 -22 2375 0 2375 0 40 22 c47 25 95
74 121 123 18 33 19 75 19 875 l0 840 -22 41 c-12 22 -40 57 -62 77 -80 72
116 67 -2475 67 -2235 -1 -2333 -1 -2384 -19z m4754 -184 l24 -28 0 -795 0
-796 -29 -29 -29 -29 -141 0 -141 0 0 306 c0 311 -2 333 -39 361 -12 10 -458
12 -2008 13 -1095 0 -1999 -3 -2008 -6 -41 -16 -45 -49 -45 -369 l0 -305 -141
0 -141 0 -29 29 -29 29 0 794 c0 862 -2 825 54 848 12 5 1051 8 2349 7 l2329
-2 24 -28z m-486 -1422 l0 -255 -1880 0 -1880 0 0 255 0 255 1880 0 1880 0 0
-255z"/>
<path d="M3952 3727 c-31 -33 -29 -87 4 -118 25 -23 31 -24 202 -27 204 -4
244 3 268 49 18 36 12 71 -16 99 -19 19 -34 20 -228 20 -205 0 -209 0 -230
-23z"/>
<path d="M884 3046 c-36 -30 -39 -86 -6 -119 l23 -22 1659 0 1659 0 23 22 c33
33 30 89 -6 119 l-27 24 -1649 0 -1649 0 -27 -24z"/>
<path d="M1054 2367 l-29 -25 -5 -414 c-6 -451 -6 -450 -69 -541 -72 -106
-179 -171 -306 -187 -91 -11 -108 -20 -125 -59 -17 -43 -2 -82 42 -104 30 -15
45 -16 107 -7 89 12 168 40 239 82 76 46 183 162 221 239 59 122 61 144 61
585 0 450 2 439 -71 450 -29 5 -41 1 -65 -19z"/>
<path d="M1583 2380 c-12 -5 -26 -17 -31 -27 -6 -10 -12 -198 -15 -438 -5
-439 -8 -469 -55 -605 -123 -353 -446 -595 -834 -626 -93 -7 -122 -22 -134
-69 -8 -31 15 -76 46 -93 35 -18 167 -7 302 24 137 33 312 118 424 207 235
187 383 461 414 765 7 63 10 253 8 465 l-3 359 -28 24 c-29 25 -56 29 -94 14z"/>
<path d="M3444 2367 l-29 -25 -3 -359 c-2 -212 1 -402 8 -465 49 -483 388
-868 860 -977 117 -27 248 -36 280 -19 31 17 54 62 46 93 -12 47 -41 62 -134
69 -471 37 -830 379 -881 839 -6 53 -11 258 -11 455 0 403 1 397 -71 408 -29
5 -41 1 -65 -19z"/>
<path d="M3955 2365 l-25 -24 0 -403 c0 -443 2 -465 61 -587 38 -77 145 -193
221 -239 71 -42 150 -70 239 -82 62 -9 77 -8 107 7 44 22 59 61 42 104 -17 39
-34 48 -125 59 -159 20 -294 124 -353 274 -14 35 -17 103 -22 454 l-5 414 -28
24 c-37 31 -81 31 -112 -1z"/>
<path d="M2130 2135 l0 -85 -85 0 -85 0 0 -85 0 -85 85 0 85 0 0 -85 0 -85 85
0 85 0 0 85 0 85 85 0 85 0 0 85 0 85 -85 0 -85 0 0 85 0 85 -85 0 -85 0 0
-85z m170 -170 l0 -85 -85 0 -85 0 0 85 0 85 85 0 85 0 0 -85z"/>
<path d="M2820 1705 l0 -85 -85 0 -85 0 0 -85 0 -85 85 0 85 0 0 -85 0 -85 85
0 85 0 0 85 0 85 85 0 85 0 0 85 0 85 -85 0 -85 0 0 85 0 85 -85 0 -85 0 0
-85z m170 -170 l0 -85 -85 0 -85 0 0 85 0 85 85 0 85 0 0 -85z"/>
<path d="M2130 1025 l0 -85 -85 0 -85 0 0 -85 0 -85 85 0 85 0 0 -85 0 -85 85
0 85 0 0 85 0 85 85 0 85 0 0 85 0 85 -85 0 -85 0 0 85 0 85 -85 0 -85 0 0
-85z m170 -170 l0 -85 -85 0 -85 0 0 85 0 85 85 0 85 0 0 -85z"/>
</g>
</svg>
