<svg width="50" height="50" viewBox="0 0 50 50" fill="none" xmlns="http://www.w3.org/2000/svg">
<g clip-path="url(#clip0_614_36)">
<path d="M41.6666 14.5833H33.3333V10.4167L29.1666 6.25H20.8333L16.6666 10.4167V14.5833H8.33329C6.04163 14.5833 4.16663 16.4583 4.16663 18.75V29.1667C4.16663 30.7292 4.99996 32.0417 6.24996 32.7708V39.5833C6.24996 41.8958 8.10413 43.75 10.4166 43.75H39.5833C41.8958 43.75 43.75 41.8958 43.75 39.5833V32.75C44.9791 32.0208 45.8333 30.6875 45.8333 29.1667V18.75C45.8333 16.4583 43.9583 14.5833 41.6666 14.5833ZM20.8333 10.4167H29.1666V14.5833H20.8333V10.4167ZM8.33329 18.75H41.6666V29.1667H31.25V22.9167H18.75V29.1667H8.33329V18.75ZM27.0833 31.25H22.9166V27.0833H27.0833V31.25ZM39.5833 39.5833H10.4166V33.3333H18.75V35.4167H31.25V33.3333H39.5833V39.5833Z" fill="#A6BFE8"/>
</g>
<defs>
<clipPath id="clip0_614_36">
<rect width="50" height="50" fill="white"/>
</clipPath>
</defs>
</svg>
