<svg width="50" height="50" viewBox="0 0 50 50" fill="none" xmlns="http://www.w3.org/2000/svg">
<g clip-path="url(#clip0_614_53)">
<path d="M39.4167 12.5208C39 11.2916 37.8333 10.4166 36.4583 10.4166H13.5417C12.1667 10.4166 11.0208 11.2916 10.5833 12.5208L6.25 25V41.6666C6.25 42.8125 7.1875 43.75 8.33333 43.75H10.4167C11.5625 43.75 12.5 42.8125 12.5 41.6666V39.5833H37.5V41.6666C37.5 42.8125 38.4375 43.75 39.5833 43.75H41.6667C42.8125 43.75 43.75 42.8125 43.75 41.6666V25L39.4167 12.5208ZM14.2708 14.5833H35.7083L37.9583 21.0625H12.0208L14.2708 14.5833ZM39.5833 35.4166H10.4167V25H39.5833V35.4166Z" fill="#A6BFE8"/>
<path d="M15.625 33.3334C17.3509 33.3334 18.75 31.9343 18.75 30.2084C18.75 28.4825 17.3509 27.0834 15.625 27.0834C13.8991 27.0834 12.5 28.4825 12.5 30.2084C12.5 31.9343 13.8991 33.3334 15.625 33.3334Z" fill="#A6BFE8"/>
<path d="M34.375 33.3334C36.1009 33.3334 37.5 31.9343 37.5 30.2084C37.5 28.4825 36.1009 27.0834 34.375 27.0834C32.6491 27.0834 31.25 28.4825 31.25 30.2084C31.25 31.9343 32.6491 33.3334 34.375 33.3334Z" fill="#A6BFE8"/>
</g>
<defs>
<clipPath id="clip0_614_53">
<rect width="50" height="50" fill="white"/>
</clipPath>
</defs>
</svg>
