<?xml version="1.0" standalone="no"?>
<!DOCTYPE svg PUBLIC "-//W3C//DTD SVG 20010904//EN"
 "http://www.w3.org/TR/2001/REC-SVG-20010904/DTD/svg10.dtd">
<svg version="1.0" xmlns="http://www.w3.org/2000/svg"
 width="59.000000pt" height="61.000000pt" viewBox="0 0 59.000000 61.000000"
 preserveAspectRatio="xMidYMid meet">

<g transform="translate(0.000000,61.000000) scale(0.100000,-0.100000)" stroke="none">
<path d="M328 569 c-51 -26 -70 -58 -66 -110 4 -50 28 -67 28 -20 0 41 44 89
90 97 l35 7 -34 -36 c-31 -33 -33 -38 -26 -85 l7 -50 50 -6 c48 -7 53 -5 84
25 27 26 34 29 34 15 0 -22 -17 -55 -42 -82 -17 -19 -17 -22 -2 -34 22 -19 44
-4 72 50 26 51 29 112 6 134 -22 23 -29 21 -79 -25 -45 -42 -69 -46 -82 -13
-4 10 9 30 36 58 22 23 41 49 41 59 0 39 -90 49 -152 16z"/>
<path d="M38 550 l-31 -28 50 -69 c45 -62 53 -68 89 -71 32 -3 49 -13 97 -60
50 -49 57 -61 57 -94 0 -31 8 -47 43 -85 69 -76 136 -124 155 -114 33 19 82
70 82 87 0 9 -36 53 -79 97 -74 76 -82 81 -122 81 -38 1 -49 7 -101 56 -50 48
-58 60 -58 93 0 33 -6 41 -57 81 -73 58 -87 61 -125 26z"/>
<path d="M92 227 c-72 -75 -82 -89 -82 -121 0 -50 36 -86 86 -86 31 0 46 9
106 68 65 63 70 70 58 91 -11 22 -13 21 -85 -49 -66 -63 -76 -70 -95 -60 -41
22 -34 38 50 126 45 47 80 90 77 97 -9 29 -38 12 -115 -66z"/>
</g>
</svg>
