<?xml version="1.0" standalone="no"?>
<!DOCTYPE svg PUBLIC "-//W3C//DTD SVG 20010904//EN"
 "http://www.w3.org/TR/2001/REC-SVG-20010904/DTD/svg10.dtd">
<svg version="1.0" xmlns="http://www.w3.org/2000/svg"
 width="33.000000pt" height="56.000000pt" viewBox="0 0 33.000000 56.000000"
 preserveAspectRatio="xMidYMid meet">

<g transform="translate(0.000000,56.000000) scale(0.100000,-0.100000)" stroke="none">
<path d="M127 429 c-117 -101 -127 -113 -127 -145 0 -34 0 -34 45 -34 55 0 55
-3 20 -121 -43 -143 -27 -143 139 -3 122 102 126 108 126 145 l0 39 -45 0
c-25 0 -45 1 -45 3 0 1 13 49 30 106 16 57 27 108 24 112 -13 22 -48 1 -167
-102z m103 13 c0 -4 -9 -39 -20 -77 -28 -96 -28 -95 30 -95 28 0 50 -4 50 -8
0 -10 -181 -165 -186 -160 -1 2 8 41 21 87 14 46 22 87 19 92 -3 5 -26 9 -50
9 -26 0 -44 4 -42 10 4 12 160 149 171 150 4 0 7 -3 7 -8z"/>
</g>
</svg>
