<?xml version="1.0" standalone="no"?>
<!DOCTYPE svg PUBLIC "-//W3C//DTD SVG 20010904//EN"
 "http://www.w3.org/TR/2001/REC-SVG-20010904/DTD/svg10.dtd">
<svg version="1.0" xmlns="http://www.w3.org/2000/svg"
 width="69.000000pt" height="60.000000pt" viewBox="0 0 69.000000 60.000000"
 preserveAspectRatio="xMidYMid meet">

<g transform="translate(0.000000,60.000000) scale(0.100000,-0.100000)" stroke="none">
<path d="M322 575 c-53 -16 -122 -63 -122 -82 0 -25 30 -26 68 -1 98 64 220
64 312 -2 36 -26 60 -26 60 0 0 23 -74 75 -130 90 -48 14 -136 11 -188 -5z"/>
<path d="M345 446 c-36 -16 -59 -41 -50 -56 9 -14 28 -13 61 5 36 19 101 19
134 0 37 -21 60 -19 60 5 0 46 -136 76 -205 46z"/>
<path d="M400 276 l0 -56 -170 0 c-208 0 -210 -1 -210 -108 0 -110 -10 -106
308 -110 147 -2 277 0 290 3 45 11 62 40 62 105 0 51 -4 65 -25 85 -22 23 -32
25 -114 25 l-90 0 -3 53 c-3 45 -6 52 -25 55 -22 3 -23 0 -23 -52z m-242 -142
c25 -45 -28 -84 -60 -44 -13 17 -15 26 -8 41 13 23 56 25 68 3z m107 -18 c0
-36 -26 -56 -49 -37 -16 14 -22 52 -9 65 4 4 19 6 33 4 20 -2 25 -8 25 -32z"/>
</g>
</svg>
