<svg width="1200" height="441" viewBox="0 0 1200 441" fill="none" xmlns="http://www.w3.org/2000/svg">
<g clip-path="url(#clip0_383_10)">
<path d="M586.101 -104.168C580.479 -67.3688 574.857 -30.5691 555.261 3.05036C535.504 36.7607 501.934 67.1999 463.866 97.094C425.958 126.988 383.393 156.246 325.889 166.332C268.225 176.418 195.623 167.422 149.684 191.683C103.746 215.943 84.6313 273.46 38.8533 299.265C-7.08528 325.161 -79.6875 319.346 -152.29 313.531V-104.168H586.101Z" fill="#BFAE9F"/>
<path d="M567.391 -123.934C561.769 -87.1345 556.147 -50.3348 536.551 -16.7154C516.794 16.9949 483.223 47.4342 445.155 77.3282C407.248 107.222 364.683 136.48 307.179 146.566C249.515 156.652 176.913 147.657 130.974 171.917C85.0354 196.178 65.9211 253.694 20.1431 279.499C-25.7955 305.395 -98.3977 299.58 -171 293.765V-123.934H567.391Z" fill="#85796F"/>
</g>
<defs>
<clipPath id="clip0_383_10">
<rect width="1200" height="442" fill="white" transform="translate(0 -1)"/>
</clipPath>
</defs>
</svg>
